# xmcd CD database file
#
# Track frame offsets:
#	150
#	22766
#	43602
#	77750
#	332550
#
# Disc length: 4440 seconds
#
# Revision: 0
# Processed by: cddbd v1.5PL3 Copyright (c) Steve Scherf et al.
# Submitted via: CDex 1.50beta8
#
DISCID=2f115605
DTITLE=SAYAKA - garden
DYEAR=2003
DGENRE=J-POP
TTITLE0=garden
TTITLE1=Believe agein
TTITLE2=Mermaid
TTITLE3=data
TTITLE4=data
EXTD=YEAR: 2003
EXTT0=
EXTT1=
EXTT2=
EXTT3=
EXTT4=
PLAYORDER=
